<?xml version="1.0" encoding="UTF-8" standalone="no"?>
<!DOCTYPE svg PUBLIC "-//W3C//DTD SVG 1.1//EN" "http://www.w3.org/Graphics/SVG/1.1/DTD/svg11.dtd">
<svg width="100%" height="100%" viewBox="0 0 445 210" version="1.1" xmlns="http://www.w3.org/2000/svg" xmlns:xlink="http://www.w3.org/1999/xlink" xml:space="preserve" xmlns:serif="http://www.serif.com/" style="fill-rule:evenodd;clip-rule:evenodd;">
    <g transform="matrix(0.80056,0,0,0.80056,44.3754,21.1079)">
        <g transform="matrix(1,0,0,1,2,16)">
            <text x="0px" y="0px" style="font-family:'PTMono-Regular', 'PT Mono', monospace;font-size:16px;">synchronous, single thread of control</text>
        </g>
        <path d="M2.5,42.5L22.5,42.5" style="fill:none;fill-rule:nonzero;stroke:rgb(68,68,255);stroke-width:5px;"/>
        <path d="M22,42L182,42" style="fill:none;fill-rule:nonzero;stroke:rgb(204,34,34);stroke-width:2px;"/>
        <circle cx="22" cy="42" r="5"/>
        <path d="M182.5,42.5L202.5,42.5" style="fill:none;fill-rule:nonzero;stroke:rgb(68,68,255);stroke-width:5px;"/>
        <path d="M202,42L402,42" style="fill:none;fill-rule:nonzero;stroke:rgb(204,34,34);stroke-width:2px;"/>
        <circle cx="202" cy="42" r="5"/>
        <path d="M402.5,42.5L442.5,42.5" style="fill:none;fill-rule:nonzero;stroke:rgb(68,68,255);stroke-width:5px;"/>
        <g transform="matrix(1,0,0,1,2,73)">
            <text x="0px" y="0px" style="font-family:'PTMono-Regular', 'PT Mono', monospace;font-size:16px;">synchronous, two threads of control</text>
        </g>
        <path d="M2.5,97.5L22.5,97.5" style="fill:none;fill-rule:nonzero;stroke:rgb(68,68,255);stroke-width:5px;"/>
        <path d="M22,97L182,97" style="fill:none;fill-rule:nonzero;stroke:rgb(204,34,34);stroke-width:2px;"/>
        <circle cx="22" cy="97" r="5"/>
        <path d="M222.5,97.5L262.5,97.5" style="fill:none;fill-rule:nonzero;stroke:rgb(68,68,255);stroke-width:5px;"/>
        <path d="M2.5,122.5L22.5,122.5" style="fill:none;fill-rule:nonzero;stroke:rgb(68,68,255);stroke-width:5px;"/>
        <path d="M22,122L222,122" style="fill:none;fill-rule:nonzero;stroke:rgb(204,34,34);stroke-width:2px;"/>
        <circle cx="22" cy="122" r="5"/>
        <path d="M222.5,122.5L242.5,122.5" style="fill:none;fill-rule:nonzero;stroke:rgb(68,68,255);stroke-width:5px;"/>
        <g transform="matrix(1,0,0,1,2,153)">
            <text x="0px" y="0px" style="font-family:'PTMono-Regular', 'PT Mono', monospace;font-size:16px;">asynchronous</text>
        </g>
        <path d="M22,177C22,193.458 35.542,207 52,207L134,207C150.458,207 164,193.458 164,177" style="fill:none;fill-rule:nonzero;stroke:rgb(204,34,34);stroke-width:2px;"/>
        <path d="M42,177C42,185.229 48.771,192 57,192L209,192C217.229,192 224,185.229 224,177" style="fill:none;fill-rule:nonzero;stroke:rgb(204,34,34);stroke-width:2px;"/>
        <path d="M2.5,177.5L62.5,177.5" style="fill:none;fill-rule:nonzero;stroke:rgb(68,68,255);stroke-width:5px;"/>
        <circle cx="22" cy="177" r="5"/>
        <circle cx="42" cy="177" r="5"/>
        <path d="M162.5,177.5L182.5,177.5" style="fill:none;fill-rule:nonzero;stroke:rgb(68,68,255);stroke-width:5px;"/>
        <path d="M222.5,177.5L262.5,177.5" style="fill:none;fill-rule:nonzero;stroke:rgb(68,68,255);stroke-width:5px;"/>
    </g>
</svg>
